<?xml version="1.0" encoding="utf-8"?>
<!-- Generator: Adobe Illustrator 16.0.0, SVG Export Plug-In . SVG Version: 6.00 Build 0)  -->
<!DOCTYPE svg PUBLIC "-//W3C//DTD SVG 1.1//EN" "http://www.w3.org/Graphics/SVG/1.1/DTD/svg11.dtd">
<svg version="1.1" id="Layer_1" xmlns="http://www.w3.org/2000/svg" xmlns:xlink="http://www.w3.org/1999/xlink" x="0px" y="0px"
	 width="415.349px" height="316.279px" viewBox="0 0 415.349 316.279" enable-background="new 0 0 415.349 316.279"
	 xml:space="preserve">
<g>
	<defs>
		<rect id="SVGID_1_" x="-70.58" y="-96.329" width="512" height="512"/>
	</defs>
	<clipPath id="SVGID_2_">
		<use xlink:href="#SVGID_1_"  overflow="visible"/>
	</clipPath>
</g>
<g>
	<defs>
		<rect id="SVGID_3_" x="-70.58" y="-96.329" width="512" height="512"/>
	</defs>
	<clipPath id="SVGID_4_">
		<use xlink:href="#SVGID_3_"  overflow="visible"/>
	</clipPath>
</g>
<g>
	<defs>
		<rect id="SVGID_5_" x="-70.58" y="-96.329" width="512" height="512"/>
	</defs>
	<clipPath id="SVGID_6_">
		<use xlink:href="#SVGID_5_"  overflow="visible"/>
	</clipPath>
</g>
<g>
	<defs>
		<rect id="SVGID_7_" x="-70.58" y="-96.329" width="512" height="512"/>
	</defs>
	<clipPath id="SVGID_8_">
		<use xlink:href="#SVGID_7_"  overflow="visible"/>
	</clipPath>
</g>
<g>
	<defs>
		<rect id="SVGID_9_" x="-70.58" y="-96.329" width="512" height="512"/>
	</defs>
	<clipPath id="SVGID_10_">
		<use xlink:href="#SVGID_9_"  overflow="visible"/>
	</clipPath>
</g>
<g>
	<defs>
		<rect id="SVGID_11_" x="-70.58" y="-96.329" width="512" height="512"/>
	</defs>
	<clipPath id="SVGID_12_">
		<use xlink:href="#SVGID_11_"  overflow="visible"/>
	</clipPath>
</g>
<g>
	<defs>
		<rect id="SVGID_13_" x="-70.58" y="-96.329" width="512" height="512"/>
	</defs>
	<clipPath id="SVGID_14_">
		<use xlink:href="#SVGID_13_"  overflow="visible"/>
	</clipPath>
</g>
<g>
	<defs>
		<rect id="SVGID_15_" x="-70.58" y="-96.329" width="512" height="512"/>
	</defs>
	<clipPath id="SVGID_16_">
		<use xlink:href="#SVGID_15_"  overflow="visible"/>
	</clipPath>
</g>
<polygon fill="#B32F06" stroke="#67230E" stroke-miterlimit="10" points="310.62,267.271 413.42,313.671 413.42,50.071 
	310.62,3.271 "/>
<polygon fill="#FF5722" stroke="#67230E" stroke-miterlimit="10" points="310.62,267.271 207.82,313.671 207.82,50.071 
	310.62,3.271 "/>
<polygon fill="#B32F06" stroke="#67230E" stroke-miterlimit="10" points="105.02,267.271 207.82,313.671 207.82,50.071 
	105.02,3.271 "/>
<polygon fill="#FF5722" stroke="#67230E" stroke-miterlimit="10" points="105.02,267.271 2.22,313.671 2.22,50.071 105.02,3.271 "/>
<g>
	<path fill="#FF5722" stroke="#67230E" stroke-miterlimit="10" d="M207.821,76.542c-15.058,0-26.946-12.153-26.946-26.945
		c0-15.06,12.151-26.946,26.946-26.946c14.794,0,26.945,12.151,26.945,26.946C234.767,64.388,222.88,76.542,207.821,76.542z
		 M207.821,6.271c-25.889,0-47.022,21.134-47.022,47.023s39.098,78.195,47.022,78.195c7.926,0,47.021-52.306,47.021-78.195
		S233.709,6.271,207.821,6.271z"/>
</g>
</svg>
